<svg width="495" height="431" viewBox="0 0 495 431" fill="none" xmlns="http://www.w3.org/2000/svg">
<g clip-path="url(#clip0_391_27380)">
<path d="M464.967 425.502C464.967 428.321 362.45 430.61 235.995 430.61C109.541 430.61 7.02319 428.321 7.02319 425.502C7.02319 422.683 109.541 420.395 235.995 420.395C362.45 420.395 464.967 422.683 464.967 425.502Z" fill="#E5E9ED"/>
<path d="M89.8213 143.633C89.8213 141.381 89.6165 139.164 89.231 137.02C88.99 135.695 89.6165 134.369 90.785 133.707L95.9651 130.719C97.5071 129.828 98.0251 127.864 97.1457 126.334L89.8694 113.721C88.978 112.179 87.0144 111.661 85.4844 112.541L80.3044 115.528C79.1358 116.203 77.6782 116.082 76.6542 115.215C73.2932 112.372 69.4262 110.119 65.2098 108.601C63.9449 108.144 63.1257 106.939 63.1257 105.602V99.6266C63.1257 97.8558 61.6922 96.4102 59.9092 96.4102H45.3568C43.5859 96.4102 42.1403 97.8437 42.1403 99.6266V105.602C42.1403 106.939 41.3091 108.156 40.0562 108.601C35.8399 110.119 31.9729 112.372 28.6118 115.215C27.5879 116.082 26.1302 116.203 24.9617 115.528L19.7816 112.541C18.2396 111.649 16.276 112.179 15.3966 113.721L8.12036 126.334C7.2289 127.876 7.75895 129.84 9.30094 130.719L14.481 133.707C15.6496 134.381 16.276 135.707 16.0351 137.02C15.6496 139.164 15.4448 141.369 15.4448 143.633C15.4448 145.898 15.6496 148.103 16.0351 150.247C16.276 151.572 15.6496 152.897 14.481 153.56L9.30094 156.547C7.75895 157.439 7.24095 159.402 8.12036 160.932L15.3966 173.545C16.288 175.087 18.2517 175.605 19.7816 174.726L24.9617 171.738C26.1302 171.064 27.5879 171.184 28.6118 172.052C31.9729 174.895 35.8399 177.147 40.0562 178.665C41.3211 179.123 42.1403 180.328 42.1403 181.665V187.64C42.1403 189.411 43.5739 190.856 45.3568 190.856H59.9092C61.6801 190.856 63.1257 189.423 63.1257 187.64V181.665C63.1257 180.328 63.9569 179.111 65.2098 178.665C69.4262 177.147 73.2932 174.895 76.6542 172.052C77.6782 171.184 79.1358 171.064 80.3044 171.738L85.4844 174.726C87.0264 175.617 88.99 175.087 89.8694 173.545L97.1457 160.932C98.0371 159.39 97.5071 157.427 95.9651 156.547L90.785 153.56C89.6165 152.885 88.99 151.56 89.231 150.247C89.6165 148.103 89.8213 145.898 89.8213 143.633ZM55.211 163.522C42.0921 165.173 31.0573 154.138 32.7077 141.019C33.8401 132.081 41.0561 124.865 49.9948 123.732C63.1137 122.082 74.1485 133.117 72.4981 146.235C71.3657 155.174 64.1497 162.39 55.211 163.522Z" fill="white" stroke="#BEC8D2" stroke-miterlimit="10"/>
<path d="M142.596 77.2315C143.97 74.9185 145.114 72.5333 146.03 70.0878C146.596 68.582 148.041 67.6182 149.644 67.6423L156.775 67.7387C158.896 67.7628 160.63 66.0762 160.666 63.956L160.907 46.5846C160.931 44.4644 159.245 42.7297 157.125 42.6935L149.981 42.5972C148.379 42.5731 146.945 41.5611 146.427 40.0433C144.717 35.08 142.139 30.4059 138.729 26.2618C137.717 25.033 137.597 23.2863 138.416 21.9129L142.066 15.7812C143.151 13.9621 142.548 11.613 140.729 10.5288L125.803 1.6383C123.984 0.55409 121.635 1.15643 120.551 2.97548L116.901 9.10727C116.082 10.4806 114.491 11.2154 112.925 10.9143C107.673 9.8903 102.324 9.84212 97.1441 10.7095C95.5659 10.9745 93.9878 10.2035 93.2168 8.8061L89.7233 2.56589C88.6873 0.722744 86.3502 0.0601742 84.5071 1.09619L69.3402 9.57709C67.4971 10.6131 66.8345 12.9502 67.8705 14.7933L71.352 21.0215C72.1351 22.4189 71.9664 24.1657 70.9183 25.3703C69.2077 27.334 67.6537 29.4662 66.2683 31.7913C64.895 34.1042 63.7505 36.4895 62.835 38.935C62.2688 40.4408 60.8232 41.4045 59.221 41.3804L52.0893 41.2841C49.9691 41.26 48.2344 42.9465 48.1982 45.0667L47.9573 62.4381C47.9332 64.5584 49.6197 66.2931 51.74 66.3292L58.8837 66.4256C60.4859 66.4497 61.9194 67.4616 62.4375 68.9795C64.1481 73.9427 66.7261 78.6169 70.1353 82.7609C71.1472 83.9897 71.2677 85.7365 70.4485 87.1098L66.7984 93.2416C65.7142 95.0607 66.3165 97.4098 68.1356 98.494L83.0614 107.384C84.8805 108.469 87.2296 107.866 88.3138 106.047L91.964 99.9155C92.7831 98.5422 94.3733 97.8073 95.9394 98.1085C101.192 99.1325 106.541 99.1806 111.721 98.3133C113.299 98.0482 114.877 98.8192 115.648 100.217L119.141 106.457C120.177 108.3 122.514 108.963 124.358 107.927L139.524 99.4457C141.368 98.4097 142.03 96.0726 140.994 94.2294L137.513 88.0013C136.73 86.6039 136.898 84.8571 137.946 83.6524C139.657 81.6888 141.211 79.5565 142.596 77.2315ZM94.9636 76.4967C80.4955 70.1842 75.9298 52.1261 85.6274 39.6819C92.2411 31.201 104.059 28.2134 113.913 32.5141C128.381 38.8265 132.947 56.8846 123.249 69.3288C116.636 77.8097 104.818 80.7973 94.9636 76.4967Z" fill="white" stroke="#BEC8D2" stroke-miterlimit="10"/>
<path d="M470.255 112.577C470.255 109.493 469.978 106.469 469.448 103.542C469.123 101.735 469.978 99.9276 471.568 99.012L478.64 94.9282C480.736 93.7115 481.458 91.025 480.242 88.9289L470.291 71.69C469.074 69.5939 466.388 68.8711 464.292 70.0878L457.208 74.1837C455.618 75.0993 453.618 74.9427 452.221 73.75C447.631 69.8589 442.343 66.775 436.572 64.7029C434.85 64.0886 433.717 62.4261 433.717 60.595V52.4273C433.717 50.0059 431.754 48.0303 429.32 48.0303H409.419C406.998 48.0303 405.022 49.9939 405.022 52.4273V60.595C405.022 62.4261 403.89 64.0765 402.167 64.7029C396.397 66.775 391.108 69.8589 386.518 73.75C385.121 74.9306 383.121 75.0993 381.531 74.1717L374.447 70.0758C372.351 68.8591 369.665 69.5819 368.448 71.678L358.498 88.9169C357.281 91.013 358.004 93.6994 360.1 94.9161L367.171 99C368.761 99.9155 369.617 101.723 369.291 103.53C368.761 106.457 368.484 109.481 368.484 112.565C368.484 115.649 368.761 118.672 369.291 121.6C369.617 123.407 368.761 125.214 367.171 126.129L360.1 130.213C358.004 131.43 357.281 134.116 358.498 136.212L368.448 153.451C369.665 155.547 372.351 156.27 374.447 155.053L381.531 150.958C383.121 150.042 385.121 150.199 386.518 151.391C391.108 155.282 396.397 158.366 402.167 160.438C403.89 161.053 405.022 162.715 405.022 164.546V172.714C405.022 175.135 406.986 177.111 409.419 177.111H429.32C431.742 177.111 433.717 175.147 433.717 172.714V164.546C433.717 162.715 434.85 161.065 436.572 160.438C442.343 158.366 447.631 155.282 452.221 151.391C453.618 150.211 455.618 150.042 457.208 150.958L464.292 155.053C466.388 156.27 469.074 155.547 470.291 153.451L480.242 136.212C481.458 134.116 480.736 131.43 478.64 130.213L471.568 126.129C469.978 125.214 469.123 123.407 469.448 121.6C469.978 118.672 470.255 115.649 470.255 112.565V112.577ZM422.947 139.778C405.01 142.043 389.927 126.948 392.192 109.023C393.734 96.7954 403.6 86.9292 415.828 85.3872C433.765 83.1224 448.848 98.2169 446.583 116.142C445.041 128.37 435.175 138.236 422.947 139.778Z" fill="white" stroke="#BEC8D2" stroke-miterlimit="10"/>
<path d="M419.38 143.608H52.6055V378.712H419.38V143.608Z" fill="#E5E9ED"/>
<path d="M419.38 153.029H52.6055V173.641H419.38V153.029Z" fill="#BEC8D2"/>
<path d="M74.4362 160.92L76.4962 163.088V166.003H72.3762V163.088L74.4362 160.92ZM74.4362 159.462C74.2555 159.462 74.0869 159.534 73.9423 159.691L71.4486 162.317C71.28 162.498 71.1836 162.763 71.1836 163.028V166.256C71.1836 166.774 71.5209 167.196 71.9425 167.196H76.9419C77.3636 167.196 77.7009 166.774 77.7009 166.256V163.028C77.7009 162.751 77.6045 162.486 77.4358 162.317L74.9422 159.691C74.7976 159.546 74.6169 159.462 74.4483 159.462H74.4362Z" fill="#174159"/>
<path d="M84.1328 165.558L87.012 163.702C87.3373 163.486 87.3373 163.172 87.012 162.967L84.1328 161.112" stroke="#174159" stroke-miterlimit="10" stroke-linecap="round"/>
<path d="M64.7247 165.558L61.8455 163.702C61.5202 163.486 61.5202 163.172 61.8455 162.967L64.7247 161.112" stroke="#174159" stroke-miterlimit="10" stroke-linecap="round"/>
<path d="M376.95 156.933H99.5384C97.8086 156.933 96.4062 158.335 96.4062 160.065V166.606C96.4062 168.336 97.8086 169.738 99.5384 169.738H376.95C378.68 169.738 380.083 168.336 380.083 166.606V160.065C380.083 158.335 378.68 156.933 376.95 156.933Z" fill="#F2F2F2"/>
<path d="M284.986 161.402H191.516V165.269H284.986V161.402Z" fill="#BEC8D2"/>
<path d="M106.37 161.402C107.443 162.474 107.443 164.197 106.37 165.269C105.298 166.341 103.575 166.341 102.503 165.269C101.431 164.197 101.431 162.474 102.503 161.402C103.575 160.33 105.298 160.33 106.37 161.402Z" stroke="#BEC8D2" stroke-miterlimit="10"/>
<path d="M106.371 165.269L108.021 166.907" stroke="#BEC8D2" stroke-miterlimit="10" stroke-linecap="round"/>
<path d="M375.829 163.329C375.829 164.835 374.6 166.064 373.094 166.064C371.588 166.064 370.359 164.835 370.359 163.329C370.359 161.823 371.588 160.595 373.094 160.595" stroke="#BEC8D2" stroke-miterlimit="10" stroke-linecap="round"/>
<path d="M373.094 159.836L374.552 160.812L373.094 161.8V159.836Z" stroke="#BEC8D2" stroke-linecap="round" stroke-linejoin="round"/>
<path d="M391.865 159.45L392.829 162.414H395.937L393.419 164.245L394.383 167.208L391.865 165.377L389.335 167.208L390.299 164.245L387.781 162.414H390.901L391.865 159.45Z" stroke="#174159" stroke-linecap="round" stroke-linejoin="round"/>
<path d="M402.527 160.089H412.707" stroke="#174159" stroke-linecap="round" stroke-linejoin="round"/>
<path d="M402.527 163.329H412.707" stroke="#174159" stroke-linecap="round" stroke-linejoin="round"/>
<path d="M402.527 166.582H412.707" stroke="#174159" stroke-linecap="round" stroke-linejoin="round"/>
<path d="M419.368 143.608V378.712H52.6055" stroke="#174159" stroke-width="0.75" stroke-miterlimit="10"/>
<path d="M419.38 143.608H52.6055V153.029H419.38V143.608Z" fill="#174159"/>
<path d="M59.9546 150.523C61.1721 150.523 62.1591 149.536 62.1591 148.319C62.1591 147.101 61.1721 146.114 59.9546 146.114C58.737 146.114 57.75 147.101 57.75 148.319C57.75 149.536 58.737 150.523 59.9546 150.523Z" fill="#FAE54E"/>
<path d="M66.0131 150.523C67.2307 150.523 68.2177 149.536 68.2177 148.319C68.2177 147.101 67.2307 146.114 66.0131 146.114C64.7956 146.114 63.8086 147.101 63.8086 148.319C63.8086 149.536 64.7956 150.523 66.0131 150.523Z" fill="#2D80EA"/>
<path d="M74.2646 148.319C74.2646 149.536 73.2767 150.523 72.06 150.523C70.8433 150.523 69.8555 149.536 69.8555 148.319C69.8555 147.102 70.8433 146.114 72.06 146.114C73.2767 146.114 74.2646 147.102 74.2646 148.319Z" fill="#E148BE"/>
<path d="M391.132 350.476H264.34V364.811H391.132V350.476Z" fill="#2176FF"/>
<path d="M97.2283 217.034C106.456 217.034 113.937 209.553 113.937 200.325C113.937 191.097 106.456 183.616 97.2283 183.616C88.0003 183.616 80.5195 191.097 80.5195 200.325C80.5195 209.553 88.0003 217.034 97.2283 217.034Z" fill="#2176FF"/>
<path d="M187.603 193.313H122.262V198.987H187.603V193.313Z" fill="#FAE54E"/>
<path d="M170.292 201.674H122.262V207.348H170.292V201.674Z" fill="#FAE54E"/>
<path d="M309.565 193.313H276.895V198.987H309.565V193.313Z" fill="#BEC8D2"/>
<path d="M350.343 193.313H317.672V198.987H350.343V193.313Z" fill="#BEC8D2"/>
<path d="M81.1562 223.322H390.817" stroke="#174159" stroke-miterlimit="10"/>
<path d="M187.601 295.181H81.1562V303.746H187.601V295.181Z" fill="#FAE54E"/>
<path d="M229.271 311.95H81.1562V315.745H229.271V311.95Z" fill="#BEC8D2"/>
<path d="M216.345 319.287H81.1562V323.082H216.345V319.287Z" fill="#BEC8D2"/>
<path d="M205.406 326.623H81.1562V330.418H205.406V326.623Z" fill="#BEC8D2"/>
<path d="M229.271 333.96H81.1562V337.755H229.271V333.96Z" fill="#BEC8D2"/>
<g filter="url(#filter0_d_391_27380)">
<path d="M125.271 350.476H88.324C84.3654 350.476 81.1562 353.685 81.1562 357.643C81.1562 361.602 84.3654 364.811 88.324 364.811H125.271C129.23 364.811 132.439 361.602 132.439 357.643C132.439 353.685 129.23 350.476 125.271 350.476Z" fill="#FAE54E"/>
</g>
<g filter="url(#filter1_d_391_27380)">
<path d="M184.338 350.476H147.39C143.432 350.476 140.223 353.685 140.223 357.643C140.223 361.602 143.432 364.811 147.39 364.811H184.338C188.296 364.811 191.506 361.602 191.506 357.643C191.506 353.685 188.296 350.476 184.338 350.476Z" fill="#174159"/>
</g>
<path d="M102.78 237.525H81.1562V259.149H102.78V237.525Z" fill="#2176FF"/>
<path d="M81.1562 237.525L102.78 259.149" stroke="#F2F2F2" stroke-width="0.5" stroke-miterlimit="10"/>
<path d="M102.78 237.525L81.1562 259.149" stroke="#F2F2F2" stroke-width="0.5" stroke-miterlimit="10"/>
<path d="M133.065 237.525H111.441V259.149H133.065V237.525Z" fill="#2176FF"/>
<path d="M111.441 237.525L133.065 259.149" stroke="#F2F2F2" stroke-width="0.5" stroke-miterlimit="10"/>
<path d="M133.065 237.525L111.441 259.149" stroke="#F2F2F2" stroke-width="0.5" stroke-miterlimit="10"/>
<path d="M163.35 237.525H141.727V259.149H163.35V237.525Z" fill="#2176FF"/>
<path d="M141.727 237.525L163.362 259.149" stroke="#F2F2F2" stroke-width="0.5" stroke-miterlimit="10"/>
<path d="M163.362 237.525L141.727 259.149" stroke="#F2F2F2" stroke-width="0.5" stroke-miterlimit="10"/>
<g filter="url(#filter2_d_391_27380)">
<path d="M197.142 266.424L84.6875 264.638L84.3843 283.729L196.838 285.516L197.142 266.424Z" fill="#2176FF"/>
</g>
<path d="M317.246 14.3838V108.469" stroke="#BEC8D2" stroke-miterlimit="10" stroke-linecap="round"/>
<path d="M322.92 129.358C322.052 129.382 321.378 130.116 321.402 130.984C321.462 132.96 319.908 134.827 317.933 135.14C317.451 135.212 316.945 135.248 316.427 135.14C315.933 135.068 315.487 134.899 315.053 134.646C314.186 134.152 313.487 133.309 313.174 132.393C312.849 131.454 312.764 130.297 313.21 129.406C315.439 124.924 319.896 122.057 319.896 117.564C323.125 116.455 325.45 113.396 325.45 109.806C325.45 105.276 321.763 101.59 317.234 101.59C312.704 101.59 309.018 105.276 309.018 109.806C309.018 113.287 311.198 116.251 314.258 117.455C313.969 120.6 310.307 123.431 308.765 127.671C308.03 129.695 308.187 131.911 308.958 133.815C309.729 135.73 311.174 137.296 312.933 138.188C314.692 139.115 316.728 139.296 318.547 138.899C320.378 138.477 322.016 137.405 323.076 135.947C324.161 134.501 324.655 132.707 324.546 130.996V130.839C324.486 129.996 323.763 129.345 322.92 129.37V129.358ZM317.246 106.409C319.113 106.409 320.643 107.926 320.643 109.806C320.643 110.95 320.065 111.962 319.197 112.576C318.619 112.034 317.824 111.733 316.981 111.805C316.33 111.866 315.752 112.155 315.306 112.564C314.439 111.95 313.861 110.938 313.861 109.794C313.861 107.926 315.379 106.396 317.258 106.396L317.246 106.409Z" fill="#BEC8D2"/>
<g filter="url(#filter3_d_391_27380)">
<path d="M412.47 188.574L204.43 217.183L221.308 339.916L429.348 311.307L412.47 188.574Z" fill="#EAF2FF"/>
<path d="M366.64 238.682L313.707 308.492L267.929 273.786L220.742 335.995L221.284 339.934L429.331 311.335L425.488 283.303L366.64 238.682Z" fill="#2176FF"/>
<path d="M408.345 194.037L423.897 307.228L225.403 334.513L209.851 221.322L408.345 194.037ZM412.465 188.604L204.418 217.202L221.283 339.934L429.33 311.336L412.465 188.604Z" fill="#2176FF"/>
<path d="M318.048 252.037C324.099 244.514 322.905 233.511 315.383 227.461C307.86 221.41 296.857 222.604 290.807 230.126C284.756 237.649 285.95 248.652 293.472 254.702C300.995 260.753 311.998 259.559 318.048 252.037Z" fill="#2176FF"/>
</g>
<path d="M217.948 215.335L208.539 247.162L220.068 215.046" stroke="#BEC8D2" stroke-linecap="round" stroke-linejoin="round"/>
<path d="M392.249 190.916L416.849 220.491L390.129 190.627" stroke="#BEC8D2" stroke-linecap="round" stroke-linejoin="round"/>
<path d="M390.13 190.627L320.572 136.742C318.922 134.405 315.476 134.345 313.742 136.622L220.066 215.046" stroke="#BEC8D2" stroke-linecap="round" stroke-linejoin="round"/>
<path d="M314.245 21.6424C318.254 17.6341 318.254 11.1354 314.245 7.12715C310.237 3.11888 303.739 3.11888 299.73 7.12715C295.722 11.1354 295.722 17.6341 299.73 21.6424C303.739 25.6506 310.237 25.6506 314.245 21.6424Z" stroke="#BEC8D2" stroke-miterlimit="10" stroke-linecap="round"/>
<path d="M306.982 18.1783C309.078 18.1783 310.777 16.4794 310.777 14.3836C310.777 12.2878 309.078 10.5889 306.982 10.5889C304.886 10.5889 303.188 12.2878 303.188 14.3836C303.188 16.4794 304.886 18.1783 306.982 18.1783Z" stroke="#BEC8D2" stroke-miterlimit="10" stroke-linecap="round"/>
<path d="M384.386 333.646C380.446 351.547 381.964 374.556 390.674 387.988C397.541 398.589 409.756 401.866 420.646 410.251L420.14 415.491L424.935 409.769C424.935 409.769 418.899 403.77 401.359 385.651C397.071 381.218 400.131 363.702 401.251 359.317C406.708 352.041 401.227 344.439 397.625 333.646H384.386Z" fill="#174159"/>
<path d="M420.647 410.25L420.141 415.491L424.935 409.768L422.899 407.732C422.899 407.732 423.152 409.913 420.635 410.25H420.647Z" fill="#2D80EA"/>
<path d="M379.351 333.646C367.846 356.342 368.328 370.882 384.965 423.863L379.652 427.152H387.76C387.76 427.152 387.41 371.159 390.675 358.389C396.132 351.113 396.204 344.439 392.602 333.646H379.363H379.351Z" fill="#2E546A"/>
<path d="M379.652 427.152H387.76V423.863C387.76 423.863 386.013 424.887 384.965 423.863L379.652 427.152Z" fill="#2D80EA"/>
<path d="M391.819 281.375C389.795 287.567 384.097 290.578 381.134 290.024C378.158 289.47 376.616 284.41 377.688 278.724C378.761 273.038 382.001 269.81 385.001 269.436C389.301 268.906 394.626 272.785 391.831 281.375H391.819Z" fill="#F2F2F2"/>
<path d="M390.542 283.085H384.965V297.095H390.542V283.085Z" fill="#F2F2F2"/>
<path d="M386.07 293.783C378.746 295.12 373.819 307.131 373.096 311.444C372.662 313.998 372.951 316.479 375.782 321.442C379.722 328.357 379.36 333.646 379.36 333.646H397.72C397.72 328.152 401.249 321.997 403.333 313.431C405.417 304.866 398.515 291.518 386.082 293.783H386.07Z" fill="#2D80EA"/>
<path d="M392.348 294.06C392.348 294.06 402.997 295.337 407.382 293.783C417.718 290.096 422.199 281.218 422.549 272.062H425.344C425.344 272.062 429.09 299.095 403.515 308.745L392.348 294.06Z" fill="#428DEC"/>
<path d="M422.55 272.062C420.683 270.002 421.863 268.316 421.128 266.69C420.394 265.075 421.297 263.22 423.321 267.641L422.478 261.449C422.478 261.449 424.899 262.666 425.345 272.062H422.55Z" fill="#F2F2F2"/>
<path d="M385.603 295.216C391.085 296.288 390.41 306.215 384.146 311.961C378.231 317.382 361.534 322.129 339.067 325.032L338.332 322.562C338.332 322.562 350.897 320.261 361.835 313.612C372.774 306.962 377.689 293.65 385.603 295.204V295.216Z" fill="#428DEC"/>
<path d="M338.33 322.575C335.921 321.442 334.644 322.888 332.934 322.635C331.223 322.382 330.38 323.539 335.042 324.249L328.633 325.177C328.633 325.177 330.139 326.96 339.053 325.044L338.318 322.575H338.33Z" fill="#F2F2F2"/>
<path d="M378.531 270.183C375.713 275.122 384.976 273.905 384.976 278.748C384.976 283.591 374.833 284.494 372.942 290.807C370.785 298.023 385.507 296.095 383.29 303.588C380.037 314.587 358.486 315.515 366.69 327.176C372.665 335.669 387.229 330.838 385.591 344.704C383.989 358.16 408.576 355.45 410.696 344.415C412.106 337.078 398.397 332.609 406.07 327.067C415.467 320.285 427.345 311.19 417.177 303.504C412.045 299.613 398.144 297.204 396.734 290.963C395.325 284.723 403.528 275.122 393.771 268.737C383.76 262.196 378.544 270.195 378.544 270.195L378.531 270.183Z" fill="#FAE54E"/>
<path d="M132.066 124.069C132.066 124.069 136.861 143.597 147.065 143.597C170.435 143.597 177.121 134.646 186.481 135.261C191.445 135.586 203.877 143.597 203.877 143.597H210.9L205.973 140.525C205.973 140.525 192.517 122.901 183.506 121.804C172.086 120.419 156.967 131.755 148.847 124.057H132.078L132.066 124.069Z" fill="#174159"/>
<path d="M203.879 143.597L202.312 142.621C202.312 142.621 205.059 142.79 205.963 140.537L210.89 143.609H203.867L203.879 143.597Z" fill="#2D80EA"/>
<path d="M301.684 5.60156L193.143 74.0631L177.543 88.9288V140.525" stroke="#BEC8D2" stroke-miterlimit="10" stroke-linecap="round"/>
<path d="M174.785 90.9764C175.749 89.3381 177.99 86.1216 179.11 88.2539C179.821 89.6031 179.532 91.9884 178.893 92.2172C178.255 92.4582 176.58 92.6027 176.58 92.6027L174.797 90.9764H174.785Z" fill="#BEC8D2"/>
<path d="M129.116 87.7605C138.006 82.7491 152.414 98.7953 156.775 99.6265C163.834 100.964 173.893 91.6998 174.785 90.977L176.568 92.6033C176.568 92.6033 165.557 108.409 155.137 108.71C144.716 109.011 117.768 94.1573 129.116 87.7605Z" fill="#2D80EA"/>
<path d="M174.785 90.9765C175.147 89.3141 175.737 88.6756 176.905 88.0612C178.592 87.1577 178.243 86.2783 178.809 86.2783C179.375 86.2783 179.965 87.9167 178.544 88.4949C178.544 88.4949 178.604 91.4102 176.074 92.1571L174.797 90.9886L174.785 90.9765Z" fill="#F2F2F2"/>
<path d="M179.11 88.2539C179.183 88.8683 178.508 88.7719 177.845 88.7478C176.954 88.7117 176.05 88.5792 176.195 89.7477C176.436 91.5788 176.159 92.6148 177.038 92.651C177.918 92.6871 178.532 92.8919 179.098 92.5907C179.664 92.2896 179.978 89.6393 179.098 88.2539H179.11Z" fill="#F2F2F2"/>
<path d="M149.701 119.022C161.182 141.682 170.06 164.908 191.323 185.014L197.322 183.267L191.901 189.278C191.901 189.278 147.425 163.257 135.354 147.295C129.909 140.031 128.547 134.815 132.149 124.033L149.701 119.01V119.022Z" fill="#2E546A"/>
<path d="M191.903 189.291L197.324 183.279L191.325 185.026C191.325 185.026 191.626 187.062 189.445 187.833L191.903 189.291Z" fill="#2D80EA"/>
<path d="M124.285 76.6292C127.598 81.5683 133.356 82.8092 135.826 81.5804C138.295 80.3516 138.404 75.5209 136.054 70.7865C133.705 66.0521 130.055 64.0163 127.321 64.4379C123.405 65.0402 119.683 69.7746 124.285 76.6292Z" fill="#F2F2F2"/>
<path d="M126.343 90.9766L134.197 88.76L130.716 76.4362L122.211 71.5332L126.343 90.9766Z" fill="#F2F2F2"/>
<path d="M132.307 86.1223C123.983 87.1703 116.815 89.5435 120.357 117.48C123.67 143.682 132.307 143.597 132.307 143.597C132.307 143.597 158.533 145.452 163.834 125.66C163.834 125.66 152.558 117.817 149.064 103.626C145.571 89.4351 138.74 85.3151 132.307 86.1343V86.1223Z" fill="#2176FF"/>
<path d="M132.307 86.1223L189.951 74.0273L191.312 77.1474C191.312 77.1474 151.618 102.903 137.752 103.795C123.886 104.686 122.272 89.1339 132.307 86.1223Z" fill="#428DEC"/>
<path d="M189.949 74.0269C189.949 74.0269 192.347 70.7623 193.732 70.9791C195.117 71.1959 196.936 74.3401 196.165 75.5569C195.394 76.7736 191.323 77.147 191.323 77.147L189.961 74.0269H189.949Z" fill="#F2F2F2"/>
<path d="M125.018 84.7728C125.018 84.7728 129.307 83.2067 129.102 78.2555C129.102 78.2555 127.078 79.3156 126.488 74.9186C126.223 72.9068 128.198 72.5092 129.102 74.7138C130.367 75.1836 132.089 74.3162 131.824 71.9792C131.403 68.2086 136.101 68.847 136.27 64.3777C136.486 58.5953 124.958 51.0058 122.777 56.2703C120.994 60.583 121.512 63.161 116.055 63.2212C106.008 63.3176 116.296 86.7846 125.018 84.7608V84.7728Z" fill="#174159"/>
<path d="M91.5415 333.646C95.4807 351.547 93.9629 374.556 85.2531 387.988C78.3864 398.589 66.1711 401.866 55.2808 410.251L55.7868 415.491L50.9922 409.769C50.9922 409.769 57.0276 403.77 74.5676 385.651C78.8563 381.218 75.7964 363.702 74.6761 359.317C69.2189 352.041 74.7001 344.439 78.3021 333.646H91.5415Z" fill="#174159"/>
<path d="M55.2808 410.25L55.7868 415.491L50.9922 409.768L53.0281 407.732C53.0281 407.732 52.7751 409.913 55.2929 410.25H55.2808Z" fill="#2D80EA"/>
<path d="M96.5781 333.646C108.083 356.342 107.601 370.882 90.9643 423.863L96.2769 427.152H88.1695C88.1695 427.152 88.5188 371.159 85.2542 358.389C79.797 351.113 79.7247 344.439 83.3267 333.646H96.566H96.5781Z" fill="#2E546A"/>
<path d="M96.2637 427.152H88.1562V423.863C88.1562 423.863 89.903 424.887 90.9511 423.863L96.2637 427.152Z" fill="#2D80EA"/>
<path d="M84.109 281.375C86.1328 287.567 91.8309 290.578 94.7944 290.024C97.77 289.47 99.312 284.41 98.2398 278.724C97.1676 273.038 93.9271 269.81 90.9274 269.436C86.6267 268.906 81.3021 272.785 84.0969 281.375H84.109Z" fill="#F2F2F2"/>
<path d="M81.1591 297.083H90.9531V283.073H81.1591V297.083Z" fill="#F2F2F2"/>
<path d="M83.579 294.06C83.579 294.06 72.9297 295.337 68.5447 293.783C58.2086 290.096 53.7272 281.218 53.3778 272.062H50.583C50.583 272.062 46.8365 299.095 72.4117 308.745L83.579 294.06Z" fill="#428DEC"/>
<path d="M53.3652 272.062C55.2324 270.002 54.0518 268.316 54.7867 266.69C55.5215 265.075 54.618 263.22 52.5942 267.641V261.449C52.5942 261.449 51.016 262.666 50.5703 272.062H53.3652Z" fill="#F2F2F2"/>
<path d="M95.0233 296.024C88.2169 292.65 85.3739 294.06 73.9897 294.542C62.6056 295.024 72.2791 322.478 72.2791 353.378C72.2791 353.378 82.1695 359.124 106.793 353.378C106.793 353.378 105.829 301.384 95.0113 296.024H95.0233Z" fill="#2176FF"/>
<path d="M90.2522 285.218C91.9388 288.193 82.2291 290.795 79.6511 287.796C77.0731 284.808 68.3633 282.459 74.7602 270.81C77.543 265.738 78.6031 258.293 82.7351 257.571C92.6495 255.848 97.4201 263.461 97.1912 267.955C96.8779 274.147 94.4686 277.869 91.9749 279.098C90.2763 279.929 87.6381 280.592 90.2643 285.218H90.2522Z" fill="#174159"/>
<path d="M89.409 294.083C101.215 294.023 109.961 300.516 118.574 301.323C128.609 302.275 138.584 295.457 140.596 290.084L145.101 289.301C145.101 289.301 138.271 303.733 119.008 310.057C109.334 313.238 97.4924 313.732 90.3246 310.431C83.1568 307.13 81.1329 294.119 89.409 294.083Z" fill="#428DEC"/>
<path d="M140.594 290.084C139.172 287.976 141.329 285.808 141.63 284.218C141.931 282.639 142.738 281.471 143.533 281.302C144.87 281.013 144.473 282.88 144.039 284.675C143.991 284.868 144.184 285.025 144.352 284.94C145.388 284.471 148.087 283.362 150.135 283.567C150.845 283.639 151.279 284.41 148.424 285.832C145.653 287.217 145.087 289.301 145.087 289.301L140.582 290.084H140.594Z" fill="#F2F2F2"/>
<g filter="url(#filter4_d_391_27380)">
<path d="M273.485 372.484H139.465V408.179H273.485V372.484Z" fill="#FAE54E"/>
<path d="M170.1 379.508H148.477V401.132H170.1V379.508Z" fill="#2176FF"/>
<path d="M148.477 379.508L170.1 401.132" stroke="#5620D8" stroke-width="0.5" stroke-miterlimit="10"/>
<path d="M170.1 379.508L148.477 401.132" stroke="#5620D8" stroke-width="0.5" stroke-miterlimit="10"/>
<path d="M258.402 384.29H177.629V386.832H258.402V384.29Z" fill="#5799EE"/>
<path d="M258.402 393.808H177.629V396.349H258.402V393.808Z" fill="#5799EE"/>
<path d="M249.692 389.049H177.629V391.591H249.692V389.049Z" fill="#5799EE"/>
</g>
<g filter="url(#filter5_d_391_27380)">
<path d="M250.993 387.845H116.973V423.539H250.993V387.845Z" fill="#2176FF"/>
<path d="M147.597 394.88H125.973V416.504H147.597V394.88Z" fill="#FAE54E"/>
<path d="M125.973 394.88L147.597 416.504" stroke="#2D80EA" stroke-width="0.5" stroke-miterlimit="10"/>
<path d="M147.597 394.88L125.973 416.504" stroke="#2D80EA" stroke-width="0.5" stroke-miterlimit="10"/>
<path d="M235.898 399.662H155.125V402.204H235.898V399.662Z" fill="#5799EE"/>
<path d="M235.898 409.18H155.125V411.722H235.898V409.18Z" fill="#5799EE"/>
<path d="M227.189 404.421H155.125V406.963H227.189V404.421Z" fill="#5799EE"/>
</g>
<path d="M240.369 126.214C242.312 126.214 243.887 124.639 243.887 122.696C243.887 120.754 242.312 119.179 240.369 119.179C238.426 119.179 236.852 120.754 236.852 122.696C236.852 124.639 238.426 126.214 240.369 126.214Z" fill="white" stroke="#BEC8D2" stroke-miterlimit="10"/>
<path d="M227.649 106.565C231.461 106.565 234.552 103.475 234.552 99.6625C234.552 95.8502 231.461 92.7598 227.649 92.7598C223.837 92.7598 220.746 95.8502 220.746 99.6625C220.746 103.475 223.837 106.565 227.649 106.565Z" fill="white" stroke="#BEC8D2" stroke-miterlimit="10"/>
<path d="M262.365 109.65C264.548 109.65 266.317 107.881 266.317 105.698C266.317 103.516 264.548 101.747 262.365 101.747C260.183 101.747 258.414 103.516 258.414 105.698C258.414 107.881 260.183 109.65 262.365 109.65Z" fill="white" stroke="#BEC8D2" stroke-miterlimit="10"/>
<path d="M6.16715 87.9534C9.24094 87.9534 11.7327 85.4616 11.7327 82.3879C11.7327 79.3141 9.24094 76.8223 6.16715 76.8223C3.09336 76.8223 0.601562 79.3141 0.601562 82.3879C0.601562 85.4616 3.09336 87.9534 6.16715 87.9534Z" fill="white" stroke="#BEC8D2" stroke-miterlimit="10"/>
<path d="M19.8997 69.8229C22.5411 69.8229 24.6823 67.6817 24.6823 65.0404C24.6823 62.399 22.5411 60.2578 19.8997 60.2578C17.2584 60.2578 15.1172 62.399 15.1172 65.0404C15.1172 67.6817 17.2584 69.8229 19.8997 69.8229Z" fill="white" stroke="#BEC8D2" stroke-miterlimit="10"/>
<path d="M455.1 182.098C457.435 182.098 459.328 180.205 459.328 177.87C459.328 175.535 457.435 173.642 455.1 173.642C452.764 173.642 450.871 175.535 450.871 177.87C450.871 180.205 452.764 182.098 455.1 182.098Z" fill="white" stroke="#BEC8D2" stroke-miterlimit="10"/>
<path d="M491.7 179.419C495.294 175.825 495.294 169.997 491.7 166.403C488.106 162.809 482.278 162.809 478.684 166.403C475.09 169.997 475.09 175.825 478.684 179.419C482.278 183.013 488.106 183.013 491.7 179.419Z" fill="white" stroke="#BEC8D2" stroke-miterlimit="10"/>
</g>
<defs>
<filter id="filter0_d_391_27380" x="81.1562" y="350.476" width="52.283" height="15.3354" filterUnits="userSpaceOnUse" color-interpolation-filters="sRGB">
<feFlood flood-opacity="0" result="BackgroundImageFix"/>
<feColorMatrix in="SourceAlpha" type="matrix" values="0 0 0 0 0 0 0 0 0 0 0 0 0 0 0 0 0 0 127 0" result="hardAlpha"/>
<feOffset dx="1" dy="1"/>
<feColorMatrix type="matrix" values="0 0 0 0 0 0 0 0 0 0 0 0 0 0 0 0 0 0 0.2 0"/>
<feBlend mode="normal" in2="BackgroundImageFix" result="effect1_dropShadow_391_27380"/>
<feBlend mode="normal" in="SourceGraphic" in2="effect1_dropShadow_391_27380" result="shape"/>
</filter>
<filter id="filter1_d_391_27380" x="140.223" y="350.476" width="52.283" height="15.3354" filterUnits="userSpaceOnUse" color-interpolation-filters="sRGB">
<feFlood flood-opacity="0" result="BackgroundImageFix"/>
<feColorMatrix in="SourceAlpha" type="matrix" values="0 0 0 0 0 0 0 0 0 0 0 0 0 0 0 0 0 0 127 0" result="hardAlpha"/>
<feOffset dx="1" dy="1"/>
<feColorMatrix type="matrix" values="0 0 0 0 0 0 0 0 0 0 0 0 0 0 0 0 0 0 0.2 0"/>
<feBlend mode="normal" in2="BackgroundImageFix" result="effect1_dropShadow_391_27380"/>
<feBlend mode="normal" in="SourceGraphic" in2="effect1_dropShadow_391_27380" result="shape"/>
</filter>
<filter id="filter2_d_391_27380" x="84.3843" y="264.638" width="114.757" height="21.8779" filterUnits="userSpaceOnUse" color-interpolation-filters="sRGB">
<feFlood flood-opacity="0" result="BackgroundImageFix"/>
<feColorMatrix in="SourceAlpha" type="matrix" values="0 0 0 0 0 0 0 0 0 0 0 0 0 0 0 0 0 0 127 0" result="hardAlpha"/>
<feOffset dx="2" dy="1"/>
<feColorMatrix type="matrix" values="0 0 0 0 0 0 0 0 0 0 0 0 0 0 0 0 0 0 0.2 0"/>
<feBlend mode="normal" in2="BackgroundImageFix" result="effect1_dropShadow_391_27380"/>
<feBlend mode="normal" in="SourceGraphic" in2="effect1_dropShadow_391_27380" result="shape"/>
</filter>
<filter id="filter3_d_391_27380" x="204.418" y="188.574" width="234.93" height="168.361" filterUnits="userSpaceOnUse" color-interpolation-filters="sRGB">
<feFlood flood-opacity="0" result="BackgroundImageFix"/>
<feColorMatrix in="SourceAlpha" type="matrix" values="0 0 0 0 0 0 0 0 0 0 0 0 0 0 0 0 0 0 127 0" result="hardAlpha"/>
<feOffset dx="10" dy="17"/>
<feColorMatrix type="matrix" values="0 0 0 0 0 0 0 0 0 0 0 0 0 0 0 0 0 0 0.2 0"/>
<feBlend mode="normal" in2="BackgroundImageFix" result="effect1_dropShadow_391_27380"/>
<feBlend mode="normal" in="SourceGraphic" in2="effect1_dropShadow_391_27380" result="shape"/>
</filter>
<filter id="filter4_d_391_27380" x="139.465" y="372.484" width="135.02" height="36.6943" filterUnits="userSpaceOnUse" color-interpolation-filters="sRGB">
<feFlood flood-opacity="0" result="BackgroundImageFix"/>
<feColorMatrix in="SourceAlpha" type="matrix" values="0 0 0 0 0 0 0 0 0 0 0 0 0 0 0 0 0 0 127 0" result="hardAlpha"/>
<feOffset dx="1" dy="1"/>
<feColorMatrix type="matrix" values="0 0 0 0 0 0 0 0 0 0 0 0 0 0 0 0 0 0 0.2 0"/>
<feBlend mode="normal" in2="BackgroundImageFix" result="effect1_dropShadow_391_27380"/>
<feBlend mode="normal" in="SourceGraphic" in2="effect1_dropShadow_391_27380" result="shape"/>
</filter>
<filter id="filter5_d_391_27380" x="116.973" y="387.845" width="135.02" height="36.6943" filterUnits="userSpaceOnUse" color-interpolation-filters="sRGB">
<feFlood flood-opacity="0" result="BackgroundImageFix"/>
<feColorMatrix in="SourceAlpha" type="matrix" values="0 0 0 0 0 0 0 0 0 0 0 0 0 0 0 0 0 0 127 0" result="hardAlpha"/>
<feOffset dx="1" dy="1"/>
<feColorMatrix type="matrix" values="0 0 0 0 0 0 0 0 0 0 0 0 0 0 0 0 0 0 0.2 0"/>
<feBlend mode="normal" in2="BackgroundImageFix" result="effect1_dropShadow_391_27380"/>
<feBlend mode="normal" in="SourceGraphic" in2="effect1_dropShadow_391_27380" result="shape"/>
</filter>
<clipPath id="clip0_391_27380">
<rect width="495" height="430.61" fill="white"/>
</clipPath>
</defs>
</svg>
